<svg width="72" height="73" viewBox="0 0 72 73" fill="none" xmlns="http://www.w3.org/2000/svg">
<g clip-path="url(#clip0_106_5954)">
<path d="M42 72.4295H30C26.0232 72.4247 22.2107 70.8428 19.3987 68.0308C16.5866 65.2188 15.0048 61.4062 15 57.4295V51.4295C15 49.0425 15.9482 46.7533 17.636 45.0655C19.3239 43.3777 21.6131 42.4295 24 42.4295H48C50.387 42.4295 52.6761 43.3777 54.364 45.0655C56.0518 46.7533 57 49.0425 57 51.4295V57.4295C56.9952 61.4062 55.4134 65.2188 52.6013 68.0308C49.7893 70.8428 45.9768 72.4247 42 72.4295ZM51 36.4295V30.4295C51 29.6338 50.6839 28.8707 50.1213 28.3081C49.5587 27.7455 48.7957 27.4295 48 27.4295H24C23.2044 27.4295 22.4413 27.7455 21.8787 28.3081C21.3161 28.8707 21 29.6338 21 30.4295V36.4295H51ZM45 21.4295V4.67146C45.0002 3.94917 44.8157 3.23883 44.464 2.60794C44.1123 1.97705 43.6051 1.44656 42.9907 1.06689C42.3762 0.687212 41.6749 0.470961 40.9533 0.438681C40.2317 0.406402 39.5139 0.559165 38.868 0.882457L31.002 4.81546C29.7994 5.41629 28.7879 6.34027 28.0811 7.48378C27.3742 8.62729 26.9998 9.9451 27 11.2895V21.4295H45Z" fill="#EBFFFE"/>
</g>
<defs>
<clipPath id="clip0_106_5954">
<rect width="72" height="72" fill="white" transform="translate(0 0.429443)"/>
</clipPath>
</defs>
</svg>
