<svg width="72" height="73" viewBox="0 0 72 73" fill="none" xmlns="http://www.w3.org/2000/svg">
<g clip-path="url(#clip0_106_5956)">
<g clip-path="url(#clip1_106_5956)">
<path d="M68.9788 18.8674C68.8288 20.6284 67.9198 22.2244 66.5338 23.2174L50.9998 33.4534V46.1944L58.2418 53.1814C59.8618 54.8014 60.4168 57.1534 59.6908 59.3224L56.6908 68.3224C55.8718 70.7764 53.5858 72.4264 50.9998 72.4264C49.9978 72.4264 49.0318 72.1804 48.1318 71.6974C45.6118 70.3324 44.4508 67.0864 45.4288 64.1494L47.1388 59.0224L35.9968 49.7674L44.9968 46.1494V39.3694H26.9968V46.0624L35.9968 49.7704L24.8548 59.0254L26.5618 64.1524C27.5428 67.0894 26.3818 70.3324 23.8678 71.6944C22.9768 72.1744 21.9838 72.4294 20.9938 72.4294C18.4078 72.4294 16.1218 70.7794 15.3028 68.3254L12.3028 59.3254C11.5798 57.1564 12.1348 54.8044 13.7518 53.1844L20.9938 46.0504V33.4564L5.56176 23.2834C4.09776 22.2364 3.17076 20.6284 3.02076 18.8674C2.87376 17.1094 3.51276 15.3754 4.77276 14.1064C6.80376 12.0574 10.2358 11.8774 12.8068 13.7074L26.5258 22.6534C28.0978 23.7724 29.9248 24.3634 31.8088 24.3634H40.1878C42.0718 24.3634 43.8808 23.7844 45.3658 22.7224L59.2948 13.6354C61.7878 11.8564 65.1958 12.0634 67.2268 14.1034C68.4868 15.3724 69.1258 17.1094 68.9788 18.8674ZM47.9998 12.4294C47.9998 5.81144 42.6178 0.429443 35.9998 0.429443C29.3818 0.429443 23.9998 5.81144 23.9998 12.4294C23.9998 18.8374 29.0608 24.0394 35.3848 24.3664H36.6118C42.9388 24.0394 47.9968 18.8374 47.9968 12.4294H47.9998Z" fill="#EBFFFE"/>
</g>
</g>
<defs>
<clipPath id="clip0_106_5956">
<rect width="72" height="72" fill="white" transform="translate(0 0.429443)"/>
</clipPath>
<clipPath id="clip1_106_5956">
<rect width="72" height="72" fill="white" transform="translate(0 0.429443)"/>
</clipPath>
</defs>
</svg>
