<svg width="100" height="101" viewBox="0 0 100 101" fill="none" xmlns="http://www.w3.org/2000/svg">
<path d="M3.33344 0.857422C2.44935 0.857422 1.60148 1.20862 0.976341 1.83376C0.3512 2.4589 0 3.30678 0 4.19086C0 5.07494 0.3512 5.92281 0.976341 6.54795C1.60148 7.17309 2.44935 7.52429 3.33344 7.52429H10.7337L13.4071 18.238L23.3941 71.4729C23.5371 72.2368 23.9424 72.9267 24.5402 73.4234C25.1379 73.9201 25.8903 74.1923 26.6675 74.193H33.3344C29.798 74.193 26.4065 75.5978 23.906 78.0984C21.4054 80.5989 20.0006 83.9904 20.0006 87.5268C20.0006 91.0631 21.4054 94.4546 23.906 96.9551C26.4065 99.4557 29.798 100.861 33.3344 100.861C36.8707 100.861 40.2622 99.4557 42.7627 96.9551C45.2633 94.4546 46.6681 91.0631 46.6681 87.5268C46.6681 83.9904 45.2633 80.5989 42.7627 78.0984C40.2622 75.5978 36.8707 74.193 33.3344 74.193H80.0025C76.4661 74.193 73.0747 75.5978 70.5741 78.0984C68.0735 80.5989 66.6687 83.9904 66.6687 87.5268C66.6687 91.0631 68.0735 94.4546 70.5741 96.9551C73.0747 99.4557 76.4661 100.861 80.0025 100.861C83.5388 100.861 86.9303 99.4557 89.4308 96.9551C91.9314 94.4546 93.3362 91.0631 93.3362 87.5268C93.3362 83.9904 91.9314 80.5989 89.4308 78.0984C86.9303 75.5978 83.5388 74.193 80.0025 74.193H86.6693C87.4465 74.1923 88.199 73.9201 88.7967 73.4234C89.3944 72.9267 89.7998 72.2368 89.9428 71.4729L99.9431 18.138C100.033 17.6569 100.016 17.1618 99.8933 16.688C99.7705 16.2142 99.5448 15.7733 99.2323 15.3966C98.9199 15.0198 98.5283 14.7165 98.0854 14.5082C97.6425 14.2999 97.1591 14.1916 96.6697 14.1912H19.2673L16.5672 3.38417C16.3872 2.6627 15.9712 2.02212 15.3853 1.56428C14.7995 1.10643 14.0773 0.857627 13.3337 0.857422H3.33344ZM40.0012 87.5268C40.0012 89.2949 39.2988 90.9907 38.0486 92.241C36.7983 93.4912 35.1025 94.1936 33.3344 94.1936C31.5662 94.1936 29.8705 93.4912 28.6202 92.241C27.3699 90.9907 26.6675 89.2949 26.6675 87.5268C26.6675 85.7586 27.3699 84.0629 28.6202 82.8126C29.8705 81.5623 31.5662 80.8599 33.3344 80.8599C35.1025 80.8599 36.7983 81.5623 38.0486 82.8126C39.2988 84.0629 40.0012 85.7586 40.0012 87.5268ZM86.6693 87.5268C86.6693 89.2949 85.9669 90.9907 84.7167 92.241C83.4664 93.4912 81.7706 94.1936 80.0025 94.1936C78.2343 94.1936 76.5386 93.4912 75.2883 92.241C74.038 90.9907 73.3356 89.2949 73.3356 87.5268C73.3356 85.7586 74.038 84.0629 75.2883 82.8126C76.5386 81.5623 78.2343 80.8599 80.0025 80.8599C81.7706 80.8599 83.4664 81.5623 84.7167 82.8126C85.9669 84.0629 86.6693 85.7586 86.6693 87.5268ZM60.0019 30.8583V40.8587H70.0022C70.8862 40.8587 71.7341 41.2099 72.3593 41.835C72.9844 42.4601 73.3356 43.308 73.3356 44.1921C73.3356 45.0762 72.9844 45.924 72.3593 46.5492C71.7341 47.1743 70.8862 47.5255 70.0022 47.5255H60.0019V57.5258C60.0019 58.4099 59.6507 59.2578 59.0255 59.8829C58.4004 60.5081 57.5525 60.8593 56.6684 60.8593C55.7843 60.8593 54.9365 60.5081 54.3113 59.8829C53.6862 59.2578 53.335 58.4099 53.335 57.5258V47.5255H43.3347C42.4506 47.5255 41.6027 47.1743 40.9776 46.5492C40.3524 45.924 40.0012 45.0762 40.0012 44.1921C40.0012 43.308 40.3524 42.4601 40.9776 41.835C41.6027 41.2099 42.4506 40.8587 43.3347 40.8587H53.335V30.8583C53.335 29.9743 53.6862 29.1264 54.3113 28.5013C54.9365 27.8761 55.7843 27.5249 56.6684 27.5249C57.5525 27.5249 58.4004 27.8761 59.0255 28.5013C59.6507 29.1264 60.0019 29.9743 60.0019 30.8583Z" fill="#053947"/>
</svg>
