<svg width="32" height="32" viewBox="0 0 32 32" fill="none" xmlns="http://www.w3.org/2000/svg">
<path d="M1.0667 0C0.783793 0 0.512474 0.112384 0.312429 0.312429C0.112384 0.512474 0 0.783793 0 1.0667C0 1.34961 0.112384 1.62093 0.312429 1.82097C0.512474 2.02102 0.783793 2.1334 1.0667 2.1334H3.43477L4.29027 5.56177L7.4861 22.597C7.53186 22.8414 7.66158 23.0622 7.85285 23.2211C8.04412 23.38 8.28491 23.4672 8.5336 23.4674H10.667C9.53537 23.4674 8.45009 23.9169 7.64991 24.7171C6.84973 25.5173 6.4002 26.6026 6.4002 27.7342C6.4002 28.8658 6.84973 29.9511 7.64991 30.7513C8.45009 31.5515 9.53537 32.001 10.667 32.001C11.7986 32.001 12.8839 31.5515 13.6841 30.7513C14.4843 29.9511 14.9338 28.8658 14.9338 27.7342C14.9338 26.6026 14.4843 25.5173 13.6841 24.7171C12.8839 23.9169 11.7986 23.4674 10.667 23.4674H25.6008C24.4692 23.4674 23.3839 23.9169 22.5837 24.7171C21.7835 25.5173 21.334 26.6026 21.334 27.7342C21.334 28.8658 21.7835 29.9511 22.5837 30.7513C23.3839 31.5515 24.4692 32.001 25.6008 32.001C26.7324 32.001 27.8177 31.5515 28.6179 30.7513C29.4181 29.9511 29.8676 28.8658 29.8676 27.7342C29.8676 26.6026 29.4181 25.5173 28.6179 24.7171C27.8177 23.9169 26.7324 23.4674 25.6008 23.4674H27.7342C27.9829 23.4672 28.2237 23.38 28.4149 23.2211C28.6062 23.0622 28.7359 22.8414 28.7817 22.597L31.9818 5.52977C32.0106 5.37582 32.0052 5.21741 31.9659 5.06579C31.9266 4.91418 31.8543 4.77308 31.7544 4.65252C31.6544 4.53197 31.5291 4.43491 31.3873 4.36824C31.2456 4.30158 31.0909 4.26694 30.9343 4.2668H6.16552L5.3015 0.808558C5.24392 0.57769 5.1108 0.372702 4.92331 0.226193C4.73583 0.0796839 4.50474 6.57332e-05 4.2668 0H1.0667ZM12.8004 27.7342C12.8004 28.3 12.5756 28.8426 12.1755 29.2427C11.7754 29.6428 11.2328 29.8676 10.667 29.8676C10.1012 29.8676 9.55855 29.6428 9.15846 29.2427C8.75837 28.8426 8.5336 28.3 8.5336 27.7342C8.5336 27.1684 8.75837 26.6257 9.15846 26.2256C9.55855 25.8256 10.1012 25.6008 10.667 25.6008C11.2328 25.6008 11.7754 25.8256 12.1755 26.2256C12.5756 26.6257 12.8004 27.1684 12.8004 27.7342ZM27.7342 27.7342C27.7342 28.3 27.5094 28.8426 27.1093 29.2427C26.7092 29.6428 26.1666 29.8676 25.6008 29.8676C25.035 29.8676 24.4923 29.6428 24.0923 29.2427C23.6922 28.8426 23.4674 28.3 23.4674 27.7342C23.4674 27.1684 23.6922 26.6257 24.0923 26.2256C24.4923 25.8256 25.035 25.6008 25.6008 25.6008C26.1666 25.6008 26.7092 25.8256 27.1093 26.2256C27.5094 26.6257 27.7342 27.1684 27.7342 27.7342ZM19.2006 9.6003V12.8004H22.4007C22.6836 12.8004 22.9549 12.9128 23.155 13.1128C23.355 13.3129 23.4674 13.5842 23.4674 13.8671C23.4674 14.15 23.355 14.4213 23.155 14.6214C22.9549 14.8214 22.6836 14.9338 22.4007 14.9338H19.2006V18.1339C19.2006 18.4168 19.0882 18.6881 18.8882 18.8882C18.6881 19.0882 18.4168 19.2006 18.1339 19.2006C17.851 19.2006 17.5797 19.0882 17.3796 18.8882C17.1796 18.6881 17.0672 18.4168 17.0672 18.1339V14.9338H13.8671C13.5842 14.9338 13.3129 14.8214 13.1128 14.6214C12.9128 14.4213 12.8004 14.15 12.8004 13.8671C12.8004 13.5842 12.9128 13.3129 13.1128 13.1128C13.3129 12.9128 13.5842 12.8004 13.8671 12.8004H17.0672V9.6003C17.0672 9.31739 17.1796 9.04607 17.3796 8.84603C17.5797 8.64598 17.851 8.5336 18.1339 8.5336C18.4168 8.5336 18.6881 8.64598 18.8882 8.84603C19.0882 9.04607 19.2006 9.31739 19.2006 9.6003Z" fill="#EBFFFE"/>
</svg>
