<svg width="80" height="81" viewBox="0 0 80 81" fill="none" xmlns="http://www.w3.org/2000/svg">
<rect y="0.5" width="80" height="80" rx="15" fill="#EBFFFE"/>
<g clip-path="url(#clip0_741_2367)">
<path d="M55.875 27.375V30.625H51V35.5H47.75V30.625H42.875V27.375H47.75V22.5H51V27.375H55.875ZM42.0625 38.75C43.408 38.75 44.5 37.658 44.5 36.3125C44.5 34.967 43.408 33.875 42.0625 33.875C40.717 33.875 39.625 34.967 39.625 36.3125C39.625 37.658 40.717 38.75 42.0625 38.75ZM47.75 44.0052L46.9164 43.079C45.6261 41.6409 43.3722 41.6409 42.0804 43.079L41.0144 44.2669L33.125 35.5L28.25 40.9161V30.625H39.625V27.375H28.25C26.4544 27.375 25 28.8294 25 30.625V50.125C25 51.9206 26.4544 53.375 28.25 53.375H47.75C49.5456 53.375 51 51.9206 51 50.125V38.75H47.75V44.0052Z" fill="#053947"/>
</g>
<defs>
<clipPath id="clip0_741_2367">
<rect width="39" height="39" fill="white" transform="translate(20 22.5)"/>
</clipPath>
</defs>
</svg>
