<svg width="58" height="67" viewBox="0 0 58 67" fill="none" xmlns="http://www.w3.org/2000/svg">
<path d="M4.9375 5.23535C3.77718 5.23535 2.66438 5.69629 1.84391 6.51676C1.02344 7.33723 0.5625 8.45003 0.5625 9.61035V13.9854C0.5625 15.1457 1.02344 16.2585 1.84391 17.0789C2.66438 17.8994 3.77718 18.3604 4.9375 18.3604H7.125V57.7354C7.125 60.056 8.04687 62.2816 9.68782 63.9225C11.3288 65.5635 13.5544 66.4854 15.875 66.4854H42.125C44.4456 66.4854 46.6712 65.5635 48.3122 63.9225C49.9531 62.2816 50.875 60.056 50.875 57.7354V18.3604H53.0625C54.2228 18.3604 55.3356 17.8994 56.1561 17.0789C56.9766 16.2585 57.4375 15.1457 57.4375 13.9854V9.61035C57.4375 8.45003 56.9766 7.33723 56.1561 6.51676C55.3356 5.69629 54.2228 5.23535 53.0625 5.23535H37.75C37.75 4.07503 37.2891 2.96223 36.4686 2.14176C35.6481 1.32129 34.5353 0.860352 33.375 0.860352L24.625 0.860352C23.4647 0.860352 22.3519 1.32129 21.5314 2.14176C20.7109 2.96223 20.25 4.07503 20.25 5.23535H4.9375ZM18.0625 22.7354C18.6427 22.7354 19.1991 22.9658 19.6093 23.3761C20.0195 23.7863 20.25 24.3427 20.25 24.9229V55.5479C20.25 56.128 20.0195 56.6844 19.6093 57.0947C19.1991 57.5049 18.6427 57.7354 18.0625 57.7354C17.4823 57.7354 16.9259 57.5049 16.5157 57.0947C16.1055 56.6844 15.875 56.128 15.875 55.5479V24.9229C15.875 24.3427 16.1055 23.7863 16.5157 23.3761C16.9259 22.9658 17.4823 22.7354 18.0625 22.7354ZM29 22.7354C29.5802 22.7354 30.1366 22.9658 30.5468 23.3761C30.957 23.7863 31.1875 24.3427 31.1875 24.9229V55.5479C31.1875 56.128 30.957 56.6844 30.5468 57.0947C30.1366 57.5049 29.5802 57.7354 29 57.7354C28.4198 57.7354 27.8634 57.5049 27.4532 57.0947C27.043 56.6844 26.8125 56.128 26.8125 55.5479V24.9229C26.8125 24.3427 27.043 23.7863 27.4532 23.3761C27.8634 22.9658 28.4198 22.7354 29 22.7354ZM42.125 24.9229V55.5479C42.125 56.128 41.8945 56.6844 41.4843 57.0947C41.0741 57.5049 40.5177 57.7354 39.9375 57.7354C39.3573 57.7354 38.8009 57.5049 38.3907 57.0947C37.9805 56.6844 37.75 56.128 37.75 55.5479V24.9229C37.75 24.3427 37.9805 23.7863 38.3907 23.3761C38.8009 22.9658 39.3573 22.7354 39.9375 22.7354C40.5177 22.7354 41.0741 22.9658 41.4843 23.3761C41.8945 23.7863 42.125 24.3427 42.125 24.9229Z" fill="#EBFFFE"/>
</svg>
