<svg width="317" height="60" viewBox="0 0 317 60" fill="none" xmlns="http://www.w3.org/2000/svg">
<path d="M60 23.0003L50.9984 7.36347L39.0093 14.263L38.9964 0.428345L20.9535 0.445417L20.9657 14.2471L9.00611 7.36347L0 23.0003L11.9128 29.8578L0 36.7134L9.00611 52.3547L20.9936 45.4542L21.0052 59.2854L39.05 59.2719L39.0376 45.4701L50.9984 52.3547L60 36.7134L48.0884 29.8578L60 23.0003Z" fill="#00A2B9"/>
<path d="M39.9993 19.2271H24.3186C25.1764 17.9405 26.6119 16.8971 27.8439 16.6763C29.3651 17.0148 30.8579 15.9473 31.3897 15.5123C32.3471 15.305 33.1025 15.6422 33.1025 15.6422L32.8372 15.3502L33.2606 15.4539C32.8127 14.9001 31.9241 14.9822 31.4297 15.0805C30.2822 13.52 27.686 15.2623 27.686 15.2623C25.8302 15.5542 23.6732 17.2008 22.6849 19.2271H20.0015C20.9897 23.5354 24.6888 26.8012 29.206 27.1477V32.3253C29.1934 32.3302 29.1805 32.3359 29.1678 32.3405C28.6506 32.4498 26.1026 33.0824 25.796 34.8663C25.5602 36.2132 26.6905 37.6433 29.206 39.2235V44.1134C27.3605 44.5029 25.8929 45.9303 25.4755 47.767H34.9418C34.6248 46.3661 33.6932 45.2062 32.4518 44.5574C33.1938 44.1573 33.8622 43.576 34.0191 42.7433C34.2348 41.6005 33.4356 40.4019 31.6157 39.1009V32.7888C31.8896 32.6499 32.1722 32.5015 32.4581 32.338C34.5607 31.1399 35.5234 30.0005 35.4198 28.8537C35.3381 27.9545 34.6274 27.2333 33.2292 26.654C36.5964 25.5364 39.1958 22.7278 39.9993 19.2271ZM27.194 35.1099C27.3002 34.4747 28.4503 33.9946 29.206 33.7894V37.5285C27.2218 36.133 27.1547 35.3432 27.194 35.1099ZM32.6232 42.4792C32.5591 42.8255 32.1428 43.1413 31.6157 43.3942V40.8921C32.6283 41.7851 32.6585 42.3024 32.6232 42.4792ZM34.0051 28.9849C34.0582 29.5377 33.0047 30.3994 31.6157 31.1853V27.5992C33.7976 28.2257 33.9918 28.8415 34.0051 28.9849Z" fill="white"/>
<path d="M70.52 42.8569V17.6569H76.388L86.828 34.7929H83.732L93.884 17.6569H99.752L99.824 42.8569H93.272L93.2 27.6289H94.316L86.72 40.3729H83.552L75.74 27.6289H77.108V42.8569H70.52ZM116.46 42.8569V39.2209L115.992 38.3209V31.6249C115.992 30.5449 115.656 29.7169 114.984 29.1409C114.336 28.5409 113.292 28.2409 111.852 28.2409C110.916 28.2409 109.968 28.3969 109.008 28.7089C108.048 28.9969 107.232 29.4049 106.56 29.9329L104.256 25.2889C105.36 24.5689 106.68 24.0169 108.216 23.6329C109.776 23.2249 111.324 23.0209 112.86 23.0209C116.028 23.0209 118.476 23.7529 120.204 25.2169C121.956 26.6569 122.832 28.9249 122.832 32.0209V42.8569H116.46ZM110.7 43.1809C109.14 43.1809 107.82 42.9169 106.74 42.3889C105.66 41.8609 104.832 41.1409 104.256 40.2289C103.704 39.3169 103.428 38.2969 103.428 37.1689C103.428 35.9689 103.728 34.9369 104.328 34.0729C104.952 33.1849 105.9 32.5129 107.172 32.0569C108.444 31.5769 110.088 31.3369 112.104 31.3369H116.712V34.9009H113.04C111.936 34.9009 111.156 35.0809 110.7 35.4409C110.268 35.8009 110.052 36.2809 110.052 36.8809C110.052 37.4809 110.28 37.9609 110.736 38.3209C111.192 38.6809 111.816 38.8609 112.608 38.8609C113.352 38.8609 114.024 38.6809 114.624 38.3209C115.248 37.9369 115.704 37.3609 115.992 36.5929L116.928 39.1129C116.568 40.4569 115.86 41.4769 114.804 42.1729C113.772 42.8449 112.404 43.1809 110.7 43.1809ZM134.241 43.1809C132.585 43.1809 130.965 42.9889 129.381 42.6049C127.821 42.2209 126.561 41.7409 125.601 41.1649L127.653 36.4849C128.565 37.0369 129.633 37.4809 130.857 37.8169C132.081 38.1289 133.281 38.2849 134.457 38.2849C135.609 38.2849 136.401 38.1649 136.833 37.9249C137.289 37.6849 137.517 37.3609 137.517 36.9529C137.517 36.5689 137.301 36.2929 136.869 36.1249C136.461 35.9329 135.909 35.7889 135.213 35.6929C134.541 35.5969 133.797 35.4889 132.981 35.3689C132.165 35.2489 131.337 35.0929 130.497 34.9009C129.681 34.6849 128.925 34.3729 128.229 33.9649C127.557 33.5329 127.017 32.9569 126.609 32.2369C126.201 31.5169 125.997 30.6049 125.997 29.5009C125.997 28.2529 126.357 27.1489 127.077 26.1889C127.821 25.2049 128.901 24.4369 130.317 23.8849C131.733 23.3089 133.461 23.0209 135.501 23.0209C136.869 23.0209 138.249 23.1649 139.641 23.4529C141.057 23.7169 142.245 24.1249 143.205 24.6769L141.153 29.3209C140.193 28.7689 139.233 28.3969 138.273 28.2049C137.313 27.9889 136.401 27.8809 135.537 27.8809C134.385 27.8809 133.569 28.0129 133.089 28.2769C132.633 28.5409 132.405 28.8649 132.405 29.2489C132.405 29.6329 132.609 29.9329 133.017 30.1489C133.425 30.3409 133.965 30.4969 134.637 30.6169C135.333 30.7129 136.089 30.8209 136.905 30.9409C137.721 31.0369 138.537 31.1929 139.353 31.4089C140.193 31.6249 140.949 31.9489 141.621 32.3809C142.317 32.7889 142.869 33.3529 143.277 34.0729C143.685 34.7689 143.889 35.6689 143.889 36.7729C143.889 37.9729 143.517 39.0529 142.773 40.0129C142.053 40.9729 140.973 41.7409 139.533 42.3169C138.117 42.8929 136.353 43.1809 134.241 43.1809ZM155.549 43.1809C153.053 43.1809 151.109 42.5689 149.717 41.3449C148.325 40.0969 147.629 38.2249 147.629 35.7289V18.9889H154.469V35.6569C154.469 36.3529 154.661 36.9049 155.045 37.3129C155.429 37.6969 155.921 37.8889 156.521 37.8889C157.337 37.8889 158.033 37.6849 158.609 37.2769L160.301 42.0649C159.725 42.4489 159.017 42.7249 158.177 42.8929C157.337 43.0849 156.461 43.1809 155.549 43.1809ZM144.785 29.1769V24.0649H158.933V29.1769H144.785ZM172.6 43.1809C170.296 43.1809 168.28 42.7489 166.552 41.8849C164.848 40.9969 163.516 39.7969 162.556 38.2849C161.62 36.7489 161.152 35.0089 161.152 33.0649C161.152 31.1209 161.608 29.3929 162.52 27.8809C163.456 26.3449 164.74 25.1569 166.372 24.3169C168.004 23.4529 169.84 23.0209 171.88 23.0209C173.8 23.0209 175.552 23.4169 177.136 24.2089C178.72 24.9769 179.98 26.1169 180.916 27.6289C181.852 29.1409 182.32 30.9769 182.32 33.1369C182.32 33.3769 182.308 33.6529 182.284 33.9649C182.26 34.2769 182.236 34.5649 182.212 34.8289H166.768V31.2289H178.576L175.984 32.2369C176.008 31.3489 175.84 30.5809 175.48 29.9329C175.144 29.2849 174.664 28.7809 174.04 28.4209C173.44 28.0609 172.732 27.8809 171.916 27.8809C171.1 27.8809 170.38 28.0609 169.756 28.4209C169.156 28.7809 168.688 29.2969 168.352 29.9689C168.016 30.6169 167.848 31.3849 167.848 32.2729V33.3169C167.848 34.2769 168.04 35.1049 168.424 35.8009C168.832 36.4969 169.408 37.0369 170.152 37.4209C170.896 37.7809 171.784 37.9609 172.816 37.9609C173.776 37.9609 174.592 37.8289 175.264 37.5649C175.96 37.2769 176.644 36.8449 177.316 36.2689L180.916 40.0129C179.98 41.0449 178.828 41.8369 177.46 42.3889C176.092 42.9169 174.472 43.1809 172.6 43.1809ZM185.473 42.8569V23.3449H191.989V29.0329L191.017 27.4129C191.593 25.9489 192.529 24.8569 193.825 24.1369C195.121 23.3929 196.693 23.0209 198.541 23.0209V29.1769C198.229 29.1289 197.953 29.1049 197.713 29.1049C197.497 29.0809 197.257 29.0689 196.993 29.0689C195.601 29.0689 194.473 29.4529 193.609 30.2209C192.745 30.9649 192.313 32.1889 192.313 33.8929V42.8569H185.473ZM205.718 29.8609H219.038V32.1649H205.718V29.8609ZM206.006 42.8569H203.342V17.6569H220.622V19.9609H206.006V42.8569ZM236.654 42.8569V38.6809L236.546 37.9969V31.0129C236.546 29.4049 236.09 28.1689 235.178 27.3049C234.29 26.4409 232.958 26.0089 231.182 26.0089C229.958 26.0089 228.794 26.2129 227.69 26.6209C226.586 27.0289 225.65 27.5689 224.882 28.2409L223.73 26.3329C224.69 25.5169 225.842 24.8929 227.186 24.4609C228.53 24.0049 229.946 23.7769 231.434 23.7769C233.882 23.7769 235.766 24.3889 237.086 25.6129C238.43 26.8129 239.102 28.6489 239.102 31.1209V42.8569H236.654ZM230.138 43.0369C228.722 43.0369 227.486 42.8089 226.43 42.3529C225.398 41.8729 224.606 41.2249 224.054 40.4089C223.502 39.5689 223.226 38.6089 223.226 37.5289C223.226 36.5449 223.454 35.6569 223.91 34.8649C224.39 34.0489 225.158 33.4009 226.214 32.9209C227.294 32.4169 228.734 32.1649 230.534 32.1649H237.05V34.0729H230.606C228.782 34.0729 227.51 34.3969 226.79 35.0449C226.094 35.6929 225.746 36.4969 225.746 37.4569C225.746 38.5369 226.166 39.4009 227.006 40.0489C227.846 40.6969 229.022 41.0209 230.534 41.0209C231.974 41.0209 233.21 40.6969 234.242 40.0489C235.298 39.3769 236.066 38.4169 236.546 37.1689L237.122 38.9329C236.642 40.1809 235.802 41.1769 234.602 41.9209C233.426 42.6649 231.938 43.0369 230.138 43.0369ZM246.044 42.8569V23.9569H248.492V29.1049L248.24 28.2049C248.768 26.7649 249.656 25.6729 250.904 24.9289C252.152 24.1609 253.7 23.7769 255.548 23.7769V26.2609C255.452 26.2609 255.356 26.2609 255.26 26.2609C255.164 26.2369 255.068 26.2249 254.972 26.2249C252.98 26.2249 251.42 26.8369 250.292 28.0609C249.164 29.2609 248.6 30.9769 248.6 33.2089V42.8569H246.044ZM283.828 23.7769C285.364 23.7769 286.696 24.0769 287.824 24.6769C288.976 25.2529 289.864 26.1409 290.488 27.3409C291.136 28.5409 291.46 30.0529 291.46 31.8769V42.8569H288.904V32.1289C288.904 30.1369 288.424 28.6369 287.464 27.6289C286.528 26.5969 285.196 26.0809 283.468 26.0809C282.172 26.0809 281.044 26.3569 280.084 26.9089C279.148 27.4369 278.416 28.2169 277.888 29.2489C277.384 30.2569 277.132 31.4809 277.132 32.9209V42.8569H274.576V32.1289C274.576 30.1369 274.096 28.6369 273.136 27.6289C272.176 26.5969 270.832 26.0809 269.104 26.0809C267.832 26.0809 266.716 26.3569 265.756 26.9089C264.796 27.4369 264.052 28.2169 263.524 29.2489C263.02 30.2569 262.768 31.4809 262.768 32.9209V42.8569H260.212V23.9569H262.66V29.0689L262.264 28.1689C262.84 26.8009 263.764 25.7329 265.036 24.9649C266.332 24.1729 267.856 23.7769 269.608 23.7769C271.456 23.7769 273.028 24.2449 274.324 25.1809C275.62 26.0929 276.46 27.4729 276.844 29.3209L275.836 28.9249C276.388 27.3889 277.36 26.1529 278.752 25.2169C280.168 24.2569 281.86 23.7769 283.828 23.7769ZM310.236 42.8569V38.6809L310.128 37.9969V31.0129C310.128 29.4049 309.672 28.1689 308.76 27.3049C307.872 26.4409 306.54 26.0089 304.764 26.0089C303.54 26.0089 302.376 26.2129 301.272 26.6209C300.168 27.0289 299.232 27.5689 298.464 28.2409L297.312 26.3329C298.272 25.5169 299.424 24.8929 300.768 24.4609C302.112 24.0049 303.528 23.7769 305.016 23.7769C307.464 23.7769 309.348 24.3889 310.668 25.6129C312.012 26.8129 312.684 28.6489 312.684 31.1209V42.8569H310.236ZM303.72 43.0369C302.304 43.0369 301.068 42.8089 300.012 42.3529C298.98 41.8729 298.188 41.2249 297.636 40.4089C297.084 39.5689 296.808 38.6089 296.808 37.5289C296.808 36.5449 297.036 35.6569 297.492 34.8649C297.972 34.0489 298.74 33.4009 299.796 32.9209C300.876 32.4169 302.316 32.1649 304.116 32.1649H310.632V34.0729H304.188C302.364 34.0729 301.092 34.3969 300.372 35.0449C299.676 35.6929 299.328 36.4969 299.328 37.4569C299.328 38.5369 299.748 39.4009 300.588 40.0489C301.428 40.6969 302.604 41.0209 304.116 41.0209C305.556 41.0209 306.792 40.6969 307.824 40.0489C308.88 39.3769 309.648 38.4169 310.128 37.1689L310.704 38.9329C310.224 40.1809 309.384 41.1769 308.184 41.9209C307.008 42.6649 305.52 43.0369 303.72 43.0369Z" fill="#EBFFFE"/>
</svg>
