<svg width="592" height="133" viewBox="0 0 592 133" fill="none" xmlns="http://www.w3.org/2000/svg">
<path d="M135 50.787L114.746 15.604L87.7709 31.1281L87.7419 0L47.1454 0.0384136L47.1728 31.0922L20.2637 15.604L0 50.787L26.8038 66.2163L0 81.6414L20.2637 116.834L47.2355 101.308L47.2618 132.428L87.8624 132.398L87.8346 101.344L114.746 116.834L135 81.6414L108.199 66.2163L135 50.787Z" fill="#00A2B9"/>
<path d="M89.9986 42.2972H54.717C56.6469 39.4024 59.8769 37.0548 62.6489 36.5579C66.0715 37.3195 69.4304 34.9176 70.6269 33.939C72.781 33.4725 74.4808 34.2312 74.4808 34.2312L73.8837 33.5742L74.8366 33.8074C73.8286 32.5614 71.8293 32.7462 70.717 32.9672C68.1351 29.4561 62.2936 33.3763 62.2936 33.3763C58.1182 34.0332 53.2648 37.738 51.0412 42.2972H45.0034C47.2269 51.9908 55.5499 59.3389 65.7135 60.1186V71.7682C65.6852 71.7792 65.6562 71.7919 65.6277 71.8023C64.4639 72.0483 58.731 73.4717 58.0412 77.4853C57.5106 80.5158 60.0537 83.7337 65.7135 87.289V98.2913C61.5613 99.1678 58.2592 102.379 57.3201 106.512H78.6193C77.906 103.36 75.8099 100.75 73.0168 99.2904C74.6861 98.3902 76.19 97.0822 76.5431 95.2087C77.0285 92.6372 75.2303 89.9406 71.1354 87.0131V72.811C71.7518 72.4984 72.3877 72.1646 73.0309 71.7967C77.7617 69.101 79.9278 66.5374 79.6946 63.957C79.5109 61.9339 77.9118 60.3111 74.7659 59.0078C82.342 56.4932 88.1908 50.1737 89.9986 42.2972ZM61.1866 78.0334C61.4256 76.6044 64.0134 75.5241 65.7136 75.0624V83.4754C61.2492 80.3354 61.0981 78.5583 61.1866 78.0334ZM73.4023 94.6145C73.2581 95.3936 72.3215 96.1042 71.1355 96.6732V91.0434C73.4138 93.0527 73.4817 94.2166 73.4023 94.6145ZM76.5116 64.2523C76.6311 65.4961 74.2607 67.4349 71.1355 69.2031V61.1344C76.0447 62.5441 76.4816 63.9296 76.5116 64.2523Z" fill="white"/>
<path d="M155.48 89.2142V44.4142H165.912L184.472 74.8782H178.968L197.016 44.4142H207.448L207.576 89.2142H195.928L195.8 62.1422H197.784L184.28 84.7982H178.648L164.76 62.1422H167.192V89.2142H155.48ZM237.151 89.2142V82.7502L236.319 81.1502V69.2462C236.319 67.3262 235.721 65.8542 234.527 64.8302C233.375 63.7635 231.519 63.2302 228.958 63.2302C227.295 63.2302 225.609 63.5075 223.903 64.0622C222.196 64.5742 220.745 65.2995 219.551 66.2382L215.455 57.9822C217.417 56.7022 219.764 55.7208 222.495 55.0382C225.268 54.3128 228.02 53.9502 230.751 53.9502C236.383 53.9502 240.735 55.2515 243.807 57.8542C246.921 60.4142 248.479 64.4462 248.479 69.9502V89.2142H237.151ZM226.911 89.7902C224.137 89.7902 221.791 89.3208 219.871 88.3822C217.951 87.4435 216.479 86.1635 215.455 84.5422C214.473 82.9208 213.983 81.1075 213.983 79.1022C213.983 76.9688 214.516 75.1342 215.583 73.5982C216.692 72.0195 218.377 70.8248 220.639 70.0142C222.9 69.1608 225.823 68.7342 229.407 68.7342H237.599V75.0702H231.071C229.108 75.0702 227.721 75.3902 226.911 76.0302C226.143 76.6702 225.759 77.5235 225.759 78.5902C225.759 79.6568 226.164 80.5102 226.975 81.1502C227.785 81.7902 228.895 82.1102 230.303 82.1102C231.625 82.1102 232.82 81.7902 233.887 81.1502C234.996 80.4675 235.807 79.4435 236.319 78.0782L237.983 82.5582C237.343 84.9475 236.084 86.7608 234.207 87.9982C232.372 89.1928 229.94 89.7902 226.911 89.7902ZM268.762 89.7902C265.818 89.7902 262.938 89.4488 260.122 88.7662C257.349 88.0835 255.109 87.2302 253.402 86.2062L257.05 77.8862C258.671 78.8675 260.57 79.6568 262.746 80.2542C264.922 80.8088 267.055 81.0862 269.146 81.0862C271.194 81.0862 272.602 80.8728 273.37 80.4462C274.181 80.0195 274.586 79.4435 274.586 78.7182C274.586 78.0355 274.202 77.5448 273.434 77.2462C272.709 76.9048 271.727 76.6488 270.49 76.4782C269.295 76.3075 267.973 76.1155 266.522 75.9022C265.071 75.6888 263.599 75.4115 262.106 75.0702C260.655 74.6862 259.311 74.1315 258.074 73.4062C256.879 72.6382 255.919 71.6142 255.194 70.3342C254.469 69.0542 254.106 67.4328 254.106 65.4702C254.106 63.2515 254.746 61.2888 256.026 59.5822C257.349 57.8328 259.269 56.4675 261.786 55.4862C264.303 54.4622 267.375 53.9502 271.002 53.9502C273.434 53.9502 275.887 54.2062 278.362 54.7182C280.879 55.1875 282.991 55.9128 284.698 56.8942L281.05 65.1502C279.343 64.1688 277.637 63.5075 275.93 63.1662C274.223 62.7822 272.602 62.5902 271.066 62.5902C269.018 62.5902 267.567 62.8248 266.714 63.2942C265.903 63.7635 265.498 64.3395 265.498 65.0222C265.498 65.7048 265.861 66.2382 266.586 66.6222C267.311 66.9635 268.271 67.2408 269.466 67.4542C270.703 67.6248 272.047 67.8168 273.498 68.0302C274.949 68.2008 276.399 68.4782 277.85 68.8622C279.343 69.2462 280.687 69.8222 281.882 70.5902C283.119 71.3155 284.101 72.3182 284.826 73.5982C285.551 74.8355 285.914 76.4355 285.914 78.3982C285.914 80.5315 285.253 82.4515 283.93 84.1582C282.65 85.8648 280.73 87.2302 278.17 88.2542C275.653 89.2782 272.517 89.7902 268.762 89.7902ZM306.642 89.7902C302.205 89.7902 298.749 88.7022 296.274 86.5262C293.799 84.3075 292.562 80.9795 292.562 76.5422V46.7822H304.722V76.4142C304.722 77.6515 305.063 78.6328 305.746 79.3582C306.429 80.0408 307.303 80.3822 308.37 80.3822C309.821 80.3822 311.058 80.0195 312.082 79.2942L315.09 87.8062C314.066 88.4888 312.807 88.9795 311.314 89.2782C309.821 89.6195 308.263 89.7902 306.642 89.7902ZM287.506 64.8942V55.8062H312.658V64.8942H287.506ZM336.955 89.7902C332.859 89.7902 329.275 89.0222 326.203 87.4862C323.174 85.9075 320.806 83.7742 319.099 81.0862C317.435 78.3555 316.603 75.2622 316.603 71.8062C316.603 68.3502 317.414 65.2782 319.035 62.5902C320.699 59.8595 322.982 57.7475 325.883 56.2542C328.784 54.7182 332.048 53.9502 335.675 53.9502C339.088 53.9502 342.203 54.6542 345.019 56.0622C347.835 57.4275 350.075 59.4542 351.739 62.1422C353.403 64.8302 354.235 68.0942 354.235 71.9342C354.235 72.3608 354.214 72.8515 354.171 73.4062C354.128 73.9608 354.086 74.4728 354.043 74.9422H326.587V68.5422H347.579L342.971 70.3342C343.014 68.7555 342.715 67.3902 342.075 66.2382C341.478 65.0862 340.624 64.1902 339.515 63.5502C338.448 62.9102 337.19 62.5902 335.739 62.5902C334.288 62.5902 333.008 62.9102 331.899 63.5502C330.832 64.1902 330 65.1075 329.403 66.3022C328.806 67.4542 328.507 68.8195 328.507 70.3982V72.2542C328.507 73.9608 328.848 75.4328 329.531 76.6702C330.256 77.9075 331.28 78.8675 332.603 79.5502C333.926 80.1902 335.504 80.5102 337.339 80.5102C339.046 80.5102 340.496 80.2755 341.691 79.8062C342.928 79.2942 344.144 78.5262 345.339 77.5022L351.739 84.1582C350.075 85.9928 348.027 87.4008 345.595 88.3822C343.163 89.3208 340.283 89.7902 336.955 89.7902ZM359.842 89.2142V54.5262H371.426V64.6382L369.698 61.7582C370.722 59.1555 372.386 57.2142 374.69 55.9342C376.994 54.6115 379.788 53.9502 383.074 53.9502V64.8942C382.519 64.8088 382.028 64.7662 381.602 64.7662C381.218 64.7235 380.791 64.7022 380.322 64.7022C377.847 64.7022 375.842 65.3848 374.306 66.7502C372.77 68.0728 372.002 70.2488 372.002 73.2782V89.2142H359.842ZM395.833 66.1102H419.513V70.2062H395.833V66.1102ZM396.345 89.2142H391.609V44.4142H422.329V48.5102H396.345V89.2142ZM450.83 89.2142V81.7902L450.638 80.5742V68.1582C450.638 65.2995 449.827 63.1022 448.206 61.5662C446.627 60.0302 444.259 59.2622 441.102 59.2622C438.926 59.2622 436.856 59.6248 434.894 60.3502C432.931 61.0755 431.267 62.0355 429.902 63.2302L427.854 59.8382C429.56 58.3875 431.608 57.2782 433.998 56.5102C436.387 55.6995 438.904 55.2942 441.55 55.2942C445.902 55.2942 449.251 56.3822 451.598 58.5582C453.987 60.6915 455.182 63.9555 455.182 68.3502V89.2142H450.83ZM439.246 89.5342C436.728 89.5342 434.531 89.1288 432.654 88.3182C430.819 87.4648 429.411 86.3128 428.43 84.8622C427.448 83.3688 426.958 81.6622 426.958 79.7422C426.958 77.9928 427.363 76.4142 428.174 75.0062C429.027 73.5555 430.392 72.4035 432.27 71.5502C434.19 70.6542 436.75 70.2062 439.95 70.2062H451.534V73.5982H440.078C436.835 73.5982 434.574 74.1742 433.294 75.3262C432.056 76.4782 431.438 77.9075 431.438 79.6142C431.438 81.5342 432.184 83.0702 433.678 84.2222C435.171 85.3742 437.262 85.9502 439.95 85.9502C442.51 85.9502 444.707 85.3742 446.542 84.2222C448.419 83.0275 449.784 81.3208 450.638 79.1022L451.662 82.2382C450.808 84.4568 449.315 86.2275 447.182 87.5502C445.091 88.8728 442.446 89.5342 439.246 89.5342ZM467.524 89.2142V55.6142H471.876V64.7662L471.428 63.1662C472.366 60.6062 473.945 58.6648 476.164 57.3422C478.382 55.9768 481.134 55.2942 484.42 55.2942V59.7102C484.249 59.7102 484.078 59.7102 483.908 59.7102C483.737 59.6675 483.566 59.6462 483.396 59.6462C479.854 59.6462 477.081 60.7342 475.076 62.9102C473.07 65.0435 472.068 68.0942 472.068 72.0622V89.2142H467.524ZM534.695 55.2942C537.426 55.2942 539.794 55.8275 541.799 56.8942C543.847 57.9182 545.426 59.4968 546.535 61.6302C547.687 63.7635 548.263 66.4515 548.263 69.6942V89.2142H543.719V70.1422C543.719 66.6008 542.866 63.9342 541.159 62.1422C539.495 60.3075 537.127 59.3902 534.055 59.3902C531.751 59.3902 529.746 59.8808 528.039 60.8622C526.375 61.8008 525.074 63.1875 524.135 65.0222C523.239 66.8142 522.791 68.9902 522.791 71.5502V89.2142H518.247V70.1422C518.247 66.6008 517.394 63.9342 515.687 62.1422C513.98 60.3075 511.591 59.3902 508.519 59.3902C506.258 59.3902 504.274 59.8808 502.567 60.8622C500.86 61.8008 499.538 63.1875 498.599 65.0222C497.703 66.8142 497.255 68.9902 497.255 71.5502V89.2142H492.711V55.6142H497.063V64.7022L496.359 63.1022C497.383 60.6702 499.026 58.7715 501.287 57.4062C503.591 55.9982 506.3 55.2942 509.415 55.2942C512.7 55.2942 515.495 56.1262 517.799 57.7902C520.103 59.4115 521.596 61.8648 522.279 65.1502L520.487 64.4462C521.468 61.7155 523.196 59.5182 525.671 57.8542C528.188 56.1475 531.196 55.2942 534.695 55.2942ZM581.642 89.2142V81.7902L581.45 80.5742V68.1582C581.45 65.2995 580.639 63.1022 579.018 61.5662C577.439 60.0302 575.071 59.2622 571.914 59.2622C569.738 59.2622 567.669 59.6248 565.706 60.3502C563.743 61.0755 562.079 62.0355 560.714 63.2302L558.666 59.8382C560.373 58.3875 562.421 57.2782 564.81 56.5102C567.199 55.6995 569.717 55.2942 572.362 55.2942C576.714 55.2942 580.063 56.3822 582.41 58.5582C584.799 60.6915 585.994 63.9555 585.994 68.3502V89.2142H581.642ZM570.058 89.5342C567.541 89.5342 565.343 89.1288 563.466 88.3182C561.631 87.4648 560.223 86.3128 559.242 84.8622C558.261 83.3688 557.77 81.6622 557.77 79.7422C557.77 77.9928 558.175 76.4142 558.986 75.0062C559.839 73.5555 561.205 72.4035 563.082 71.5502C565.002 70.6542 567.562 70.2062 570.762 70.2062H582.346V73.5982H570.89C567.647 73.5982 565.386 74.1742 564.106 75.3262C562.869 76.4782 562.25 77.9075 562.25 79.6142C562.25 81.5342 562.997 83.0702 564.49 84.2222C565.983 85.3742 568.074 85.9502 570.762 85.9502C573.322 85.9502 575.519 85.3742 577.354 84.2222C579.231 83.0275 580.597 81.3208 581.45 79.1022L582.474 82.2382C581.621 84.4568 580.127 86.2275 577.994 87.5502C575.903 88.8728 573.258 89.5342 570.058 89.5342Z" fill="#EBFFFE"/>
</svg>
