<svg width="150" height="35" viewBox="0 0 150 35" fill="none" xmlns="http://www.w3.org/2000/svg">
<path d="M34.8446 13.1086L29.617 4.02753L22.6544 8.03442L22.6469 0L12.1686 0.00991488L12.1757 8.02517L5.23024 4.02753L0 13.1086L6.91828 17.091L0 21.0723L5.23024 30.1559L12.1919 26.1485L12.1987 34.1809L22.678 34.173L22.6708 26.1577L29.617 30.1559L34.8446 21.0723L27.927 17.091L34.8446 13.1086Z" fill="#00A2B9"/>
<path d="M23.2293 10.9172H14.1229C14.621 10.17 15.4547 9.56404 16.1702 9.43578C17.0536 9.63237 17.9205 9.01242 18.2294 8.75983C18.7854 8.63943 19.2241 8.83525 19.2241 8.83525L19.07 8.66569L19.3159 8.72587C19.0558 8.40426 18.5397 8.45196 18.2526 8.50901C17.5862 7.60277 16.0785 8.61459 16.0785 8.61459C15.0008 8.78416 13.7481 9.74039 13.1741 10.9172H11.6157C12.1896 13.4192 14.3378 15.3158 16.9612 15.517V18.5239C16.9539 18.5267 16.9464 18.53 16.939 18.5327C16.6386 18.5962 15.1589 18.9635 14.9809 19.9995C14.8439 20.7817 15.5003 21.6123 16.9612 22.5299V25.3697C15.8894 25.5959 15.0371 26.4249 14.7948 27.4916H20.2923C20.1082 26.678 19.5671 26.0044 18.8462 25.6276C19.2771 25.3952 19.6652 25.0576 19.7564 24.5741C19.8817 23.9103 19.4175 23.2143 18.3606 22.4587V18.793C18.5197 18.7123 18.6838 18.6262 18.8499 18.5312C20.0709 17.8354 20.63 17.1738 20.5698 16.5077C20.5224 15.9856 20.1096 15.5667 19.2977 15.2303C21.2531 14.5813 22.7627 12.9502 23.2293 10.9172ZM15.7927 20.141C15.8544 19.7721 16.5224 19.4933 16.9612 19.3741V21.5456C15.8089 20.7351 15.7699 20.2765 15.7927 20.141ZM18.9457 24.4207C18.9085 24.6218 18.6668 24.8052 18.3606 24.9521V23.499C18.9487 24.0176 18.9662 24.318 18.9457 24.4207ZM19.7482 16.5839C19.7791 16.905 19.1673 17.4054 18.3606 17.8618V15.7792C19.6277 16.1431 19.7405 16.5007 19.7482 16.5839Z" fill="white"/>
<path d="M39.9647 23.0905V11.8905H42.5727L47.2127 19.5065H45.8367L50.3487 11.8905H52.9567L52.9887 23.0905H50.0767L50.0447 16.3225H50.5407L47.1647 21.9865H45.7567L42.2847 16.3225H42.8927V23.0905H39.9647ZM60.3824 23.0905V21.4745L60.1744 21.0745V18.0985C60.1744 17.6185 60.025 17.2505 59.7264 16.9945C59.4384 16.7278 58.9744 16.5945 58.3344 16.5945C57.9184 16.5945 57.497 16.6638 57.0704 16.8025C56.6437 16.9305 56.281 17.1118 55.9824 17.3465L54.9584 15.2825C55.449 14.9625 56.0357 14.7171 56.7184 14.5465C57.4117 14.3651 58.0997 14.2745 58.7824 14.2745C60.1904 14.2745 61.2784 14.5998 62.0464 15.2505C62.825 15.8905 63.2144 16.8985 63.2144 18.2745V23.0905H60.3824ZM57.8224 23.2345C57.129 23.2345 56.5424 23.1171 56.0624 22.8825C55.5824 22.6478 55.2144 22.3278 54.9584 21.9225C54.713 21.5171 54.5904 21.0638 54.5904 20.5625C54.5904 20.0291 54.7237 19.5705 54.9904 19.1865C55.2677 18.7918 55.689 18.4931 56.2544 18.2905C56.8197 18.0771 57.5504 17.9705 58.4464 17.9705H60.4944V19.5545H58.8624C58.3717 19.5545 58.025 19.6345 57.8224 19.7945C57.6304 19.9545 57.5344 20.1678 57.5344 20.4345C57.5344 20.7011 57.6357 20.9145 57.8384 21.0745C58.041 21.2345 58.3184 21.3145 58.6704 21.3145C59.001 21.3145 59.2997 21.2345 59.5664 21.0745C59.8437 20.9038 60.0464 20.6478 60.1744 20.3065L60.5904 21.4265C60.4304 22.0238 60.1157 22.4771 59.6464 22.7865C59.1877 23.0851 58.5797 23.2345 57.8224 23.2345ZM68.2852 23.2345C67.5492 23.2345 66.8292 23.1491 66.1252 22.9785C65.4319 22.8078 64.8719 22.5945 64.4452 22.3385L65.3572 20.2585C65.7626 20.5038 66.2372 20.7011 66.7812 20.8505C67.3252 20.9891 67.8586 21.0585 68.3812 21.0585C68.8932 21.0585 69.2452 21.0051 69.4372 20.8985C69.6399 20.7918 69.7412 20.6478 69.7412 20.4665C69.7412 20.2958 69.6452 20.1731 69.4532 20.0985C69.2719 20.0131 69.0266 19.9491 68.7172 19.9065C68.4186 19.8638 68.0879 19.8158 67.7252 19.7625C67.3626 19.7091 66.9946 19.6398 66.6212 19.5545C66.2586 19.4585 65.9226 19.3198 65.6132 19.1385C65.3146 18.9465 65.0746 18.6905 64.8932 18.3705C64.7119 18.0505 64.6212 17.6451 64.6212 17.1545C64.6212 16.5998 64.7812 16.1091 65.1012 15.6825C65.4319 15.2451 65.9119 14.9038 66.5412 14.6585C67.1706 14.4025 67.9386 14.2745 68.8452 14.2745C69.4532 14.2745 70.0666 14.3385 70.6852 14.4665C71.3146 14.5838 71.8426 14.7651 72.2692 15.0105L71.3572 17.0745C70.9306 16.8291 70.5039 16.6638 70.0772 16.5785C69.6506 16.4825 69.2452 16.4345 68.8612 16.4345C68.3492 16.4345 67.9866 16.4931 67.7732 16.6105C67.5706 16.7278 67.4692 16.8718 67.4692 17.0425C67.4692 17.2131 67.5599 17.3465 67.7412 17.4425C67.9226 17.5278 68.1626 17.5971 68.4612 17.6505C68.7706 17.6931 69.1066 17.7411 69.4692 17.7945C69.8319 17.8371 70.1946 17.9065 70.5572 18.0025C70.9306 18.0985 71.2666 18.2425 71.5652 18.4345C71.8746 18.6158 72.1199 18.8665 72.3012 19.1865C72.4826 19.4958 72.5732 19.8958 72.5732 20.3865C72.5732 20.9198 72.4079 21.3998 72.0772 21.8265C71.7572 22.2531 71.2772 22.5945 70.6372 22.8505C70.0079 23.1065 69.2239 23.2345 68.2852 23.2345ZM77.7552 23.2345C76.6459 23.2345 75.7819 22.9625 75.1632 22.4185C74.5446 21.8638 74.2352 21.0318 74.2352 19.9225V12.4825H77.2752V19.8905C77.2752 20.1998 77.3606 20.4451 77.5312 20.6265C77.7019 20.7971 77.9206 20.8825 78.1872 20.8825C78.5499 20.8825 78.8592 20.7918 79.1152 20.6105L79.8672 22.7385C79.6112 22.9091 79.2966 23.0318 78.9232 23.1065C78.5499 23.1918 78.1606 23.2345 77.7552 23.2345ZM72.9712 17.0105V14.7385H79.2592V17.0105H72.9712ZM85.3335 23.2345C84.3095 23.2345 83.4135 23.0425 82.6455 22.6585C81.8881 22.2638 81.2961 21.7305 80.8695 21.0585C80.4535 20.3758 80.2455 19.6025 80.2455 18.7385C80.2455 17.8745 80.4481 17.1065 80.8535 16.4345C81.2695 15.7518 81.8401 15.2238 82.5655 14.8505C83.2908 14.4665 84.1068 14.2745 85.0135 14.2745C85.8668 14.2745 86.6455 14.4505 87.3495 14.8025C88.0535 15.1438 88.6135 15.6505 89.0295 16.3225C89.4455 16.9945 89.6535 17.8105 89.6535 18.7705C89.6535 18.8771 89.6481 18.9998 89.6375 19.1385C89.6268 19.2771 89.6161 19.4051 89.6055 19.5225H82.7415V17.9225H87.9895L86.8375 18.3705C86.8481 17.9758 86.7735 17.6345 86.6135 17.3465C86.4641 17.0585 86.2508 16.8345 85.9735 16.6745C85.7068 16.5145 85.3921 16.4345 85.0295 16.4345C84.6668 16.4345 84.3468 16.5145 84.0695 16.6745C83.8028 16.8345 83.5948 17.0638 83.4455 17.3625C83.2961 17.6505 83.2215 17.9918 83.2215 18.3865V18.8505C83.2215 19.2771 83.3068 19.6451 83.4775 19.9545C83.6588 20.2638 83.9148 20.5038 84.2455 20.6745C84.5761 20.8345 84.9708 20.9145 85.4295 20.9145C85.8561 20.9145 86.2188 20.8558 86.5175 20.7385C86.8268 20.6105 87.1308 20.4185 87.4295 20.1625L89.0295 21.8265C88.6135 22.2851 88.1015 22.6371 87.4935 22.8825C86.8855 23.1171 86.1655 23.2345 85.3335 23.2345ZM91.0551 23.0905V14.4185H93.9511V16.9465L93.5191 16.2265C93.7751 15.5758 94.1911 15.0905 94.7671 14.7705C95.3431 14.4398 96.0418 14.2745 96.8631 14.2745V17.0105C96.7244 16.9891 96.6018 16.9785 96.4951 16.9785C96.3991 16.9678 96.2924 16.9625 96.1751 16.9625C95.5564 16.9625 95.0551 17.1331 94.6711 17.4745C94.2871 17.8051 94.0951 18.3491 94.0951 19.1065V23.0905H91.0551ZM100.053 17.3145H105.973V18.3385H100.053V17.3145ZM100.181 23.0905H98.9969V11.8905H106.677V12.9145H100.181V23.0905ZM113.802 23.0905V21.2345L113.754 20.9305V17.8265C113.754 17.1118 113.551 16.5625 113.146 16.1785C112.751 15.7945 112.159 15.6025 111.37 15.6025C110.826 15.6025 110.309 15.6931 109.818 15.8745C109.327 16.0558 108.911 16.2958 108.57 16.5945L108.058 15.7465C108.485 15.3838 108.997 15.1065 109.594 14.9145C110.191 14.7118 110.821 14.6105 111.482 14.6105C112.57 14.6105 113.407 14.8825 113.994 15.4265C114.591 15.9598 114.89 16.7758 114.89 17.8745V23.0905H113.802ZM110.906 23.1705C110.277 23.1705 109.727 23.0691 109.258 22.8665C108.799 22.6531 108.447 22.3651 108.202 22.0025C107.957 21.6291 107.834 21.2025 107.834 20.7225C107.834 20.2851 107.935 19.8905 108.138 19.5385C108.351 19.1758 108.693 18.8878 109.162 18.6745C109.642 18.4505 110.282 18.3385 111.082 18.3385H113.978V19.1865H111.114C110.303 19.1865 109.738 19.3305 109.418 19.6185C109.109 19.9065 108.954 20.2638 108.954 20.6905C108.954 21.1705 109.141 21.5545 109.514 21.8425C109.887 22.1305 110.41 22.2745 111.082 22.2745C111.722 22.2745 112.271 22.1305 112.73 21.8425C113.199 21.5438 113.541 21.1171 113.754 20.5625L114.01 21.3465C113.797 21.9011 113.423 22.3438 112.89 22.6745C112.367 23.0051 111.706 23.1705 110.906 23.1705ZM117.976 23.0905V14.6905H119.064V16.9785L118.952 16.5785C119.186 15.9385 119.581 15.4531 120.136 15.1225C120.69 14.7811 121.378 14.6105 122.2 14.6105V15.7145C122.157 15.7145 122.114 15.7145 122.072 15.7145C122.029 15.7038 121.986 15.6985 121.944 15.6985C121.058 15.6985 120.365 15.9705 119.864 16.5145C119.362 17.0478 119.112 17.8105 119.112 18.8025V23.0905H117.976ZM134.768 14.6105C135.451 14.6105 136.043 14.7438 136.544 15.0105C137.056 15.2665 137.451 15.6611 137.728 16.1945C138.016 16.7278 138.16 17.3998 138.16 18.2105V23.0905H137.024V18.3225C137.024 17.4371 136.811 16.7705 136.384 16.3225C135.968 15.8638 135.376 15.6345 134.608 15.6345C134.032 15.6345 133.531 15.7571 133.104 16.0025C132.688 16.2371 132.363 16.5838 132.128 17.0425C131.904 17.4905 131.792 18.0345 131.792 18.6745V23.0905H130.656V18.3225C130.656 17.4371 130.443 16.7705 130.016 16.3225C129.59 15.8638 128.992 15.6345 128.224 15.6345C127.659 15.6345 127.163 15.7571 126.736 16.0025C126.31 16.2371 125.979 16.5838 125.744 17.0425C125.52 17.4905 125.408 18.0345 125.408 18.6745V23.0905H124.272V14.6905H125.36V16.9625L125.184 16.5625C125.44 15.9545 125.851 15.4798 126.416 15.1385C126.992 14.7865 127.67 14.6105 128.448 14.6105C129.27 14.6105 129.968 14.8185 130.544 15.2345C131.12 15.6398 131.494 16.2531 131.664 17.0745L131.216 16.8985C131.462 16.2158 131.894 15.6665 132.512 15.2505C133.142 14.8238 133.894 14.6105 134.768 14.6105ZM146.505 23.0905V21.2345L146.457 20.9305V17.8265C146.457 17.1118 146.255 16.5625 145.849 16.1785C145.455 15.7945 144.863 15.6025 144.073 15.6025C143.529 15.6025 143.012 15.6931 142.521 15.8745C142.031 16.0558 141.615 16.2958 141.273 16.5945L140.761 15.7465C141.188 15.3838 141.7 15.1065 142.297 14.9145C142.895 14.7118 143.524 14.6105 144.185 14.6105C145.273 14.6105 146.111 14.8825 146.697 15.4265C147.295 15.9598 147.593 16.7758 147.593 17.8745V23.0905H146.505ZM143.609 23.1705C142.98 23.1705 142.431 23.0691 141.961 22.8665C141.503 22.6531 141.151 22.3651 140.905 22.0025C140.66 21.6291 140.537 21.2025 140.537 20.7225C140.537 20.2851 140.639 19.8905 140.841 19.5385C141.055 19.1758 141.396 18.8878 141.865 18.6745C142.345 18.4505 142.985 18.3385 143.785 18.3385H146.681V19.1865H143.817C143.007 19.1865 142.441 19.3305 142.121 19.6185C141.812 19.9065 141.657 20.2638 141.657 20.6905C141.657 21.1705 141.844 21.5545 142.217 21.8425C142.591 22.1305 143.113 22.2745 143.785 22.2745C144.425 22.2745 144.975 22.1305 145.433 21.8425C145.903 21.5438 146.244 21.1171 146.457 20.5625L146.713 21.3465C146.5 21.9011 146.127 22.3438 145.593 22.6745C145.071 23.0051 144.409 23.1705 143.609 23.1705Z" fill="#EBFFFE"/>
</svg>
