<svg width="72" height="73" viewBox="0 0 72 73" fill="none" xmlns="http://www.w3.org/2000/svg">
<g clip-path="url(#clip0_106_5952)">
<path d="M48 7.92945C48 5.44545 50.016 3.42945 52.5 3.42945C54.984 3.42945 57 5.44545 57 7.92945C57 10.4135 54.984 12.4295 52.5 12.4295C50.016 12.4295 48 10.4135 48 7.92945ZM26.457 12.5855C28.704 12.9485 30.741 13.8875 32.529 15.1685C32.811 14.2985 33 13.3895 33 12.4265C33 12.1235 32.94 11.8385 32.91 11.5445C33.816 12.0935 34.866 12.4265 36 12.4265C39.309 12.4265 42 9.73545 42 6.42645C42 3.11745 39.309 0.426453 36 0.426453C32.898 0.426453 30.372 2.79945 30.063 5.81745C28.461 4.34745 26.343 3.42645 24 3.42645C19.038 3.42645 15 7.46445 15 12.4265C15 13.3535 15.183 14.2325 15.444 15.0755C18.633 12.8585 22.566 11.9495 26.457 12.5855ZM64.32 49.6715L60.057 53.9345C59.328 54.3665 58.374 54.2705 57.744 53.6405C57.057 52.9535 57.006 51.8735 57.588 51.1265L70.68 38.0345C72.438 36.2795 72.438 33.4265 70.68 31.6715C68.922 29.9135 66.075 29.9135 64.317 31.6715L51.243 44.7455C50.496 45.3455 49.401 45.3005 48.708 44.6075C48.084 43.9835 47.985 43.0385 48.408 42.3095L64.683 26.0345C66.441 24.2795 66.441 21.4265 64.683 19.6715C62.925 17.9135 60.078 17.9135 58.32 19.6715L42.246 35.7455C41.499 36.3455 40.404 36.3005 39.711 35.6075C39.087 34.9835 38.988 34.0385 39.411 33.3095L49.686 23.0345C51.444 21.2795 51.444 18.4265 49.686 16.6715C47.928 14.9135 45.081 14.9135 43.323 16.6715L30.006 29.9885V24.4295C30.006 21.1145 27.321 18.4295 24.006 18.4295C20.691 18.4295 18.006 21.1145 18.006 24.4295V47.6675C18.006 54.1475 20.529 60.2405 25.113 64.8245C30.183 69.8945 36.846 72.4295 43.506 72.4295C50.166 72.4295 56.826 69.8945 61.899 64.8245L70.686 56.0345C72.444 54.2765 72.444 51.4295 70.686 49.6715C68.928 47.9135 66.075 47.9135 64.32 49.6715ZM19.695 66.8765C19.572 66.7985 19.356 66.6185 19.074 66.3635C14.439 62.1365 11.907 56.0765 11.925 49.8035L12.003 24.4295C12.003 21.1145 9.318 18.4295 6.003 18.4295C2.688 18.4295 0 21.1145 0 24.4295V47.6675L0.042 47.6045C0.327 52.1045 2.055 56.4035 4.983 59.8595L12.516 68.7455C13.854 70.0985 15.15 71.1245 16.536 71.9795C17.028 72.2855 17.571 72.4265 18.108 72.4265C19.113 72.4265 20.097 71.9225 20.664 71.0015C21.537 69.5915 21.099 67.7435 19.689 66.8735L19.695 66.8765Z" fill="#EBFFFE"/>
</g>
<defs>
<clipPath id="clip0_106_5952">
<rect width="72" height="72" fill="white" transform="translate(0 0.429443)"/>
</clipPath>
</defs>
</svg>
