<svg width="25" height="29" viewBox="0 0 25 29" fill="none" xmlns="http://www.w3.org/2000/svg">
<path d="M2.34615 2.68176C1.85652 2.68176 1.38695 2.87912 1.04073 3.2304C0.694505 3.58169 0.5 4.05814 0.5 4.55494V6.42811C0.5 6.9249 0.694505 7.40135 1.04073 7.75264C1.38695 8.10393 1.85652 8.30128 2.34615 8.30128H3.26923V25.1598C3.26923 26.1534 3.65824 27.1063 4.35068 27.8089C5.04312 28.5115 5.98228 28.9062 6.96154 28.9062H18.0385C19.0177 28.9062 19.9569 28.5115 20.6493 27.8089C21.3418 27.1063 21.7308 26.1534 21.7308 25.1598V8.30128H22.6538C23.1435 8.30128 23.6131 8.10393 23.9593 7.75264C24.3055 7.40135 24.5 6.9249 24.5 6.42811V4.55494C24.5 4.05814 24.3055 3.58169 23.9593 3.2304C23.6131 2.87912 23.1435 2.68176 22.6538 2.68176H16.1923C16.1923 2.18497 15.9978 1.70852 15.6516 1.35723C15.3054 1.00595 14.8358 0.808594 14.3462 0.808594H10.6538C10.1642 0.808594 9.69464 1.00595 9.34842 1.35723C9.0022 1.70852 8.80769 2.18497 8.80769 2.68176H2.34615ZM7.88462 10.1744C8.12943 10.1744 8.36422 10.2731 8.53733 10.4488C8.71044 10.6244 8.80769 10.8626 8.80769 11.111V24.2232C8.80769 24.4716 8.71044 24.7099 8.53733 24.8855C8.36422 25.0611 8.12943 25.1598 7.88462 25.1598C7.6398 25.1598 7.40501 25.0611 7.2319 24.8855C7.05879 24.7099 6.96154 24.4716 6.96154 24.2232V11.111C6.96154 10.8626 7.05879 10.6244 7.2319 10.4488C7.40501 10.2731 7.6398 10.1744 7.88462 10.1744ZM12.5 10.1744C12.7448 10.1744 12.9796 10.2731 13.1527 10.4488C13.3258 10.6244 13.4231 10.8626 13.4231 11.111V24.2232C13.4231 24.4716 13.3258 24.7099 13.1527 24.8855C12.9796 25.0611 12.7448 25.1598 12.5 25.1598C12.2552 25.1598 12.0204 25.0611 11.8473 24.8855C11.6742 24.7099 11.5769 24.4716 11.5769 24.2232V11.111C11.5769 10.8626 11.6742 10.6244 11.8473 10.4488C12.0204 10.2731 12.2552 10.1744 12.5 10.1744ZM18.0385 11.111V24.2232C18.0385 24.4716 17.9412 24.7099 17.7681 24.8855C17.595 25.0611 17.3602 25.1598 17.1154 25.1598C16.8706 25.1598 16.6358 25.0611 16.4627 24.8855C16.2896 24.7099 16.1923 24.4716 16.1923 24.2232V11.111C16.1923 10.8626 16.2896 10.6244 16.4627 10.4488C16.6358 10.2731 16.8706 10.1744 17.1154 10.1744C17.3602 10.1744 17.595 10.2731 17.7681 10.4488C17.9412 10.6244 18.0385 10.8626 18.0385 11.111Z" fill="#053947"/>
</svg>
