<svg width="72" height="73" viewBox="0 0 72 73" fill="none" xmlns="http://www.w3.org/2000/svg">
<path d="M0 33.4294V18.4294C0 8.50544 8.076 0.429443 18 0.429443C27.924 0.429443 36 8.50544 36 18.4294V33.4294H0ZM0 39.4294V54.4294C0 64.3534 8.076 72.4294 18 72.4294C27.924 72.4294 36 64.3534 36 54.4294V39.4294H0ZM42 18.4294V36.0874L59.769 26.6014L52.575 13.1254C49.335 7.05644 43.146 3.56144 36.714 3.44144C40.014 7.55144 42 12.7594 42 18.4294ZM69.843 45.4684L62.649 31.9924L42 43.0144V54.4294C42 58.4044 41.013 62.1454 39.297 65.4514C44.688 72.2824 54.366 74.5114 62.307 70.2724C71.223 65.5114 74.601 54.3844 69.843 45.4684Z" fill="#EBFFFE"/>
</svg>
