<svg width="496" height="501" viewBox="0 0 496 501" fill="none" xmlns="http://www.w3.org/2000/svg">
<rect y="0.5" width="496" height="500" rx="30" fill="#EBFFFE"/>
<rect x="0.5" y="1" width="495" height="499" rx="29.5" stroke="#053947" stroke-opacity="0.2"/>
<path d="M327.167 150.5V167.167H302.167V192.167H285.5V167.167H260.5V150.5H285.5V125.5H302.167V150.5H327.167ZM256.333 208.833C263.233 208.833 268.833 203.233 268.833 196.333C268.833 189.433 263.233 183.833 256.333 183.833C249.433 183.833 243.833 189.433 243.833 196.333C243.833 203.233 249.433 208.833 256.333 208.833ZM285.5 235.783L281.225 231.033C274.608 223.658 263.05 223.658 256.425 231.033L250.958 237.125L210.5 192.167L185.5 219.942V167.167H243.833V150.5H185.5C176.292 150.5 168.833 157.958 168.833 167.167V267.167C168.833 276.375 176.292 283.833 185.5 283.833H285.5C294.708 283.833 302.167 276.375 302.167 267.167V208.833H285.5V235.783Z" fill="#053947"/>
<path d="M102.235 314.834L109.651 298.034H114.331L121.771 314.834H116.827L111.019 300.362H112.891L107.083 314.834H102.235ZM106.291 311.57L107.515 308.066H115.723L116.947 311.57H106.291ZM127.969 315.05C126.785 315.05 125.705 314.778 124.729 314.234C123.769 313.674 123.001 312.898 122.425 311.906C121.849 310.898 121.561 309.698 121.561 308.306C121.561 306.93 121.849 305.746 122.425 304.754C123.001 303.746 123.769 302.97 124.729 302.426C125.705 301.882 126.785 301.61 127.969 301.61C129.089 301.61 130.033 301.85 130.801 302.33C131.585 302.81 132.177 303.546 132.577 304.538C132.977 305.53 133.177 306.786 133.177 308.306C133.177 309.858 132.985 311.13 132.601 312.122C132.217 313.114 131.641 313.85 130.873 314.33C130.105 314.81 129.137 315.05 127.969 315.05ZM128.929 311.426C129.441 311.426 129.897 311.306 130.297 311.066C130.713 310.826 131.041 310.474 131.281 310.01C131.521 309.53 131.641 308.962 131.641 308.306C131.641 307.65 131.521 307.098 131.281 306.65C131.041 306.186 130.713 305.834 130.297 305.594C129.897 305.354 129.441 305.234 128.929 305.234C128.401 305.234 127.929 305.354 127.513 305.594C127.113 305.834 126.793 306.186 126.553 306.65C126.313 307.098 126.193 307.65 126.193 308.306C126.193 308.962 126.313 309.53 126.553 310.01C126.793 310.474 127.113 310.826 127.513 311.066C127.929 311.306 128.401 311.426 128.929 311.426ZM131.785 314.834V312.602L131.809 308.306L131.569 304.01V297.026H136.129V314.834H131.785ZM138.583 314.834V301.826H143.143V314.834H138.583ZM140.863 300.386C140.031 300.386 139.359 300.154 138.847 299.69C138.335 299.226 138.079 298.65 138.079 297.962C138.079 297.274 138.335 296.698 138.847 296.234C139.359 295.77 140.031 295.538 140.863 295.538C141.695 295.538 142.367 295.762 142.879 296.21C143.391 296.642 143.647 297.202 143.647 297.89C143.647 298.61 143.391 299.21 142.879 299.69C142.383 300.154 141.711 300.386 140.863 300.386ZM152.274 315.05C150.834 315.05 149.546 314.762 148.41 314.186C147.29 313.61 146.41 312.818 145.77 311.81C145.13 310.786 144.81 309.618 144.81 308.306C144.81 306.994 145.13 305.834 145.77 304.826C146.41 303.818 147.29 303.034 148.41 302.474C149.546 301.898 150.834 301.61 152.274 301.61C153.746 301.61 155.018 301.922 156.09 302.546C157.162 303.17 157.922 304.05 158.37 305.186L154.842 306.986C154.538 306.378 154.162 305.938 153.714 305.666C153.266 305.378 152.778 305.234 152.25 305.234C151.722 305.234 151.242 305.354 150.81 305.594C150.378 305.834 150.034 306.186 149.778 306.65C149.538 307.098 149.418 307.65 149.418 308.306C149.418 308.978 149.538 309.546 149.778 310.01C150.034 310.474 150.378 310.826 150.81 311.066C151.242 311.306 151.722 311.426 152.25 311.426C152.778 311.426 153.266 311.29 153.714 311.018C154.162 310.73 154.538 310.282 154.842 309.674L158.37 311.474C157.922 312.61 157.162 313.49 156.09 314.114C155.018 314.738 153.746 315.05 152.274 315.05ZM159.56 314.834V301.826H164.12V314.834H159.56ZM161.84 300.386C161.008 300.386 160.336 300.154 159.824 299.69C159.312 299.226 159.056 298.65 159.056 297.962C159.056 297.274 159.312 296.698 159.824 296.234C160.336 295.77 161.008 295.538 161.84 295.538C162.672 295.538 163.344 295.762 163.856 296.21C164.368 296.642 164.624 297.202 164.624 297.89C164.624 298.61 164.368 299.21 163.856 299.69C163.36 300.154 162.688 300.386 161.84 300.386ZM173.132 315.05C171.708 315.05 170.444 314.762 169.34 314.186C168.236 313.61 167.364 312.818 166.724 311.81C166.1 310.786 165.788 309.618 165.788 308.306C165.788 306.994 166.1 305.834 166.724 304.826C167.364 303.818 168.236 303.034 169.34 302.474C170.444 301.898 171.708 301.61 173.132 301.61C174.556 301.61 175.82 301.898 176.924 302.474C178.044 303.034 178.916 303.818 179.54 304.826C180.164 305.834 180.476 306.994 180.476 308.306C180.476 309.618 180.164 310.786 179.54 311.81C178.916 312.818 178.044 313.61 176.924 314.186C175.82 314.762 174.556 315.05 173.132 315.05ZM173.132 311.426C173.66 311.426 174.124 311.306 174.524 311.066C174.94 310.826 175.268 310.474 175.508 310.01C175.748 309.53 175.868 308.962 175.868 308.306C175.868 307.65 175.748 307.098 175.508 306.65C175.268 306.186 174.94 305.834 174.524 305.594C174.124 305.354 173.66 305.234 173.132 305.234C172.62 305.234 172.156 305.354 171.74 305.594C171.34 305.834 171.012 306.186 170.756 306.65C170.516 307.098 170.396 307.65 170.396 308.306C170.396 308.962 170.516 309.53 170.756 310.01C171.012 310.474 171.34 310.826 171.74 311.066C172.156 311.306 172.62 311.426 173.132 311.426ZM190.58 301.61C191.588 301.61 192.5 301.818 193.316 302.234C194.132 302.634 194.772 303.258 195.236 304.106C195.716 304.954 195.956 306.05 195.956 307.394V314.834H191.396V308.138C191.396 307.21 191.204 306.538 190.82 306.122C190.452 305.69 189.932 305.474 189.26 305.474C188.78 305.474 188.34 305.586 187.94 305.81C187.54 306.018 187.228 306.346 187.004 306.794C186.78 307.242 186.668 307.826 186.668 308.546V314.834H182.108V301.826H186.452V305.522L185.612 304.442C186.108 303.498 186.788 302.794 187.652 302.33C188.516 301.85 189.492 301.61 190.58 301.61ZM206.283 314.834V312.41L205.971 311.81V307.346C205.971 306.626 205.747 306.074 205.299 305.69C204.867 305.29 204.171 305.09 203.211 305.09C202.587 305.09 201.955 305.194 201.315 305.402C200.675 305.594 200.131 305.866 199.683 306.218L198.147 303.122C198.883 302.642 199.763 302.274 200.787 302.018C201.827 301.746 202.859 301.61 203.883 301.61C205.995 301.61 207.627 302.098 208.779 303.074C209.947 304.034 210.531 305.546 210.531 307.61V314.834H206.283ZM202.443 315.05C201.403 315.05 200.523 314.874 199.803 314.522C199.083 314.17 198.531 313.69 198.147 313.082C197.779 312.474 197.595 311.794 197.595 311.042C197.595 310.242 197.795 309.554 198.195 308.978C198.611 308.386 199.243 307.938 200.091 307.634C200.939 307.314 202.035 307.154 203.379 307.154H206.451V309.53H204.003C203.267 309.53 202.747 309.65 202.443 309.89C202.155 310.13 202.011 310.45 202.011 310.85C202.011 311.25 202.163 311.57 202.467 311.81C202.771 312.05 203.187 312.17 203.715 312.17C204.211 312.17 204.659 312.05 205.059 311.81C205.475 311.554 205.779 311.17 205.971 310.658L206.595 312.338C206.355 313.234 205.883 313.914 205.179 314.378C204.491 314.826 203.579 315.05 202.443 315.05ZM212.929 314.834V301.826H217.273V305.618L216.625 304.538C217.009 303.562 217.633 302.834 218.497 302.354C219.361 301.858 220.409 301.61 221.641 301.61V305.714C221.433 305.682 221.249 305.666 221.089 305.666C220.945 305.65 220.785 305.642 220.609 305.642C219.681 305.642 218.929 305.898 218.353 306.41C217.777 306.906 217.489 307.722 217.489 308.858V314.834H212.929ZM230.122 314.834V301.97C230.122 300.402 230.586 299.154 231.514 298.226C232.458 297.282 233.802 296.81 235.546 296.81C236.106 296.81 236.658 296.866 237.202 296.978C237.746 297.09 238.202 297.258 238.57 297.482L237.442 300.698C237.25 300.586 237.034 300.498 236.794 300.434C236.554 300.354 236.314 300.314 236.074 300.314C235.594 300.314 235.218 300.458 234.946 300.746C234.69 301.018 234.562 301.442 234.562 302.018V302.954L234.682 304.85V314.834H230.122ZM228.226 305.714V302.306H237.658V305.714H228.226ZM245.252 315.05C243.828 315.05 242.564 314.762 241.46 314.186C240.356 313.61 239.484 312.818 238.844 311.81C238.22 310.786 237.908 309.618 237.908 308.306C237.908 306.994 238.22 305.834 238.844 304.826C239.484 303.818 240.356 303.034 241.46 302.474C242.564 301.898 243.828 301.61 245.252 301.61C246.676 301.61 247.94 301.898 249.044 302.474C250.164 303.034 251.036 303.818 251.66 304.826C252.284 305.834 252.596 306.994 252.596 308.306C252.596 309.618 252.284 310.786 251.66 311.81C251.036 312.818 250.164 313.61 249.044 314.186C247.94 314.762 246.676 315.05 245.252 315.05ZM245.252 311.426C245.78 311.426 246.244 311.306 246.644 311.066C247.06 310.826 247.388 310.474 247.628 310.01C247.868 309.53 247.988 308.962 247.988 308.306C247.988 307.65 247.868 307.098 247.628 306.65C247.388 306.186 247.06 305.834 246.644 305.594C246.244 305.354 245.78 305.234 245.252 305.234C244.74 305.234 244.276 305.354 243.86 305.594C243.46 305.834 243.132 306.186 242.876 306.65C242.636 307.098 242.516 307.65 242.516 308.306C242.516 308.962 242.636 309.53 242.876 310.01C243.132 310.474 243.46 310.826 243.86 311.066C244.276 311.306 244.74 311.426 245.252 311.426ZM260.036 315.05C258.372 315.05 257.076 314.642 256.148 313.826C255.22 312.994 254.756 311.746 254.756 310.082V298.922H259.316V310.034C259.316 310.498 259.444 310.866 259.7 311.138C259.956 311.394 260.284 311.522 260.684 311.522C261.228 311.522 261.692 311.386 262.076 311.114L263.204 314.306C262.82 314.562 262.348 314.746 261.788 314.858C261.228 314.986 260.644 315.05 260.036 315.05ZM252.86 305.714V302.306H262.292V305.714H252.86ZM270.635 315.05C269.211 315.05 267.947 314.762 266.843 314.186C265.739 313.61 264.867 312.818 264.227 311.81C263.603 310.786 263.291 309.618 263.291 308.306C263.291 306.994 263.603 305.834 264.227 304.826C264.867 303.818 265.739 303.034 266.843 302.474C267.947 301.898 269.211 301.61 270.635 301.61C272.059 301.61 273.323 301.898 274.427 302.474C275.547 303.034 276.419 303.818 277.043 304.826C277.667 305.834 277.979 306.994 277.979 308.306C277.979 309.618 277.667 310.786 277.043 311.81C276.419 312.818 275.547 313.61 274.427 314.186C273.323 314.762 272.059 315.05 270.635 315.05ZM270.635 311.426C271.163 311.426 271.627 311.306 272.027 311.066C272.443 310.826 272.771 310.474 273.011 310.01C273.251 309.53 273.371 308.962 273.371 308.306C273.371 307.65 273.251 307.098 273.011 306.65C272.771 306.186 272.443 305.834 272.027 305.594C271.627 305.354 271.163 305.234 270.635 305.234C270.123 305.234 269.659 305.354 269.243 305.594C268.843 305.834 268.515 306.186 268.259 306.65C268.019 307.098 267.899 307.65 267.899 308.306C267.899 308.962 268.019 309.53 268.259 310.01C268.515 310.474 268.843 310.826 269.243 311.066C269.659 311.306 270.123 311.426 270.635 311.426ZM294.3 315.05C293.196 315.05 292.252 314.81 291.468 314.33C290.684 313.834 290.084 313.098 289.668 312.122C289.268 311.13 289.068 309.866 289.068 308.33C289.068 306.778 289.26 305.514 289.644 304.538C290.028 303.546 290.604 302.81 291.372 302.33C292.156 301.85 293.132 301.61 294.3 301.61C295.484 301.61 296.556 301.89 297.516 302.45C298.492 302.994 299.26 303.77 299.82 304.778C300.396 305.77 300.684 306.954 300.684 308.33C300.684 309.706 300.396 310.898 299.82 311.906C299.26 312.914 298.492 313.69 297.516 314.234C296.556 314.778 295.484 315.05 294.3 315.05ZM286.116 319.49V301.826H290.46V304.034L290.436 308.33L290.676 312.65V319.49H286.116ZM293.34 311.426C293.852 311.426 294.308 311.306 294.708 311.066C295.124 310.826 295.452 310.474 295.692 310.01C295.948 309.546 296.076 308.986 296.076 308.33C296.076 307.674 295.948 307.114 295.692 306.65C295.452 306.186 295.124 305.834 294.708 305.594C294.308 305.354 293.852 305.234 293.34 305.234C292.828 305.234 292.364 305.354 291.948 305.594C291.548 305.834 291.22 306.186 290.964 306.65C290.724 307.114 290.604 307.674 290.604 308.33C290.604 308.986 290.724 309.546 290.964 310.01C291.22 310.474 291.548 310.826 291.948 311.066C292.364 311.306 292.828 311.426 293.34 311.426ZM302.324 314.834V301.826H306.668V305.618L306.02 304.538C306.404 303.562 307.028 302.834 307.892 302.354C308.756 301.858 309.804 301.61 311.036 301.61V305.714C310.828 305.682 310.644 305.666 310.484 305.666C310.34 305.65 310.18 305.642 310.004 305.642C309.076 305.642 308.324 305.898 307.748 306.41C307.172 306.906 306.884 307.722 306.884 308.858V314.834H302.324ZM312.437 314.834V301.826H316.997V314.834H312.437ZM314.717 300.386C313.885 300.386 313.213 300.154 312.701 299.69C312.189 299.226 311.933 298.65 311.933 297.962C311.933 297.274 312.189 296.698 312.701 296.234C313.213 295.77 313.885 295.538 314.717 295.538C315.549 295.538 316.221 295.762 316.733 296.21C317.245 296.642 317.501 297.202 317.501 297.89C317.501 298.61 317.245 299.21 316.733 299.69C316.237 300.154 315.565 300.386 314.717 300.386ZM327.953 301.61C328.961 301.61 329.873 301.818 330.689 302.234C331.505 302.634 332.145 303.258 332.609 304.106C333.089 304.954 333.329 306.05 333.329 307.394V314.834H328.769V308.138C328.769 307.21 328.577 306.538 328.193 306.122C327.825 305.69 327.305 305.474 326.633 305.474C326.153 305.474 325.713 305.586 325.313 305.81C324.913 306.018 324.601 306.346 324.377 306.794C324.153 307.242 324.041 307.826 324.041 308.546V314.834H319.481V301.826H323.825V305.522L322.985 304.442C323.481 303.498 324.161 302.794 325.025 302.33C325.889 301.85 326.865 301.61 327.953 301.61ZM342.524 315.05C341.084 315.05 339.796 314.762 338.66 314.186C337.54 313.61 336.66 312.818 336.02 311.81C335.38 310.786 335.06 309.618 335.06 308.306C335.06 306.994 335.38 305.834 336.02 304.826C336.66 303.818 337.54 303.034 338.66 302.474C339.796 301.898 341.084 301.61 342.524 301.61C343.996 301.61 345.268 301.922 346.34 302.546C347.412 303.17 348.172 304.05 348.62 305.186L345.092 306.986C344.788 306.378 344.412 305.938 343.964 305.666C343.516 305.378 343.028 305.234 342.5 305.234C341.972 305.234 341.492 305.354 341.06 305.594C340.628 305.834 340.284 306.186 340.028 306.65C339.788 307.098 339.668 307.65 339.668 308.306C339.668 308.978 339.788 309.546 340.028 310.01C340.284 310.474 340.628 310.826 341.06 311.066C341.492 311.306 341.972 311.426 342.5 311.426C343.028 311.426 343.516 311.29 343.964 311.018C344.412 310.73 344.788 310.282 345.092 309.674L348.62 311.474C348.172 312.61 347.412 313.49 346.34 314.114C345.268 314.738 343.996 315.05 342.524 315.05ZM349.81 314.834V301.826H354.37V314.834H349.81ZM352.09 300.386C351.258 300.386 350.586 300.154 350.074 299.69C349.562 299.226 349.306 298.65 349.306 297.962C349.306 297.274 349.562 296.698 350.074 296.234C350.586 295.77 351.258 295.538 352.09 295.538C352.922 295.538 353.594 295.762 354.106 296.21C354.618 296.642 354.874 297.202 354.874 297.89C354.874 298.61 354.618 299.21 354.106 299.69C353.61 300.154 352.938 300.386 352.09 300.386ZM365.037 315.05C363.933 315.05 362.989 314.81 362.205 314.33C361.421 313.834 360.821 313.098 360.405 312.122C360.005 311.13 359.805 309.866 359.805 308.33C359.805 306.778 359.997 305.514 360.381 304.538C360.765 303.546 361.341 302.81 362.109 302.33C362.893 301.85 363.869 301.61 365.037 301.61C366.221 301.61 367.293 301.89 368.253 302.45C369.229 302.994 369.997 303.77 370.557 304.778C371.133 305.77 371.421 306.954 371.421 308.33C371.421 309.706 371.133 310.898 370.557 311.906C369.997 312.914 369.229 313.69 368.253 314.234C367.293 314.778 366.221 315.05 365.037 315.05ZM356.853 319.49V301.826H361.197V304.034L361.173 308.33L361.413 312.65V319.49H356.853ZM364.077 311.426C364.589 311.426 365.045 311.306 365.445 311.066C365.861 310.826 366.189 310.474 366.429 310.01C366.685 309.546 366.813 308.986 366.813 308.33C366.813 307.674 366.685 307.114 366.429 306.65C366.189 306.186 365.861 305.834 365.445 305.594C365.045 305.354 364.589 305.234 364.077 305.234C363.565 305.234 363.101 305.354 362.685 305.594C362.285 305.834 361.957 306.186 361.701 306.65C361.461 307.114 361.341 307.674 361.341 308.33C361.341 308.986 361.461 309.546 361.701 310.01C361.957 310.474 362.285 310.826 362.685 311.066C363.101 311.306 363.565 311.426 364.077 311.426ZM380.723 314.834V312.41L380.411 311.81V307.346C380.411 306.626 380.187 306.074 379.739 305.69C379.307 305.29 378.611 305.09 377.651 305.09C377.027 305.09 376.395 305.194 375.755 305.402C375.115 305.594 374.571 305.866 374.123 306.218L372.587 303.122C373.323 302.642 374.203 302.274 375.227 302.018C376.267 301.746 377.299 301.61 378.323 301.61C380.435 301.61 382.067 302.098 383.219 303.074C384.387 304.034 384.971 305.546 384.971 307.61V314.834H380.723ZM376.883 315.05C375.843 315.05 374.963 314.874 374.243 314.522C373.523 314.17 372.971 313.69 372.587 313.082C372.219 312.474 372.035 311.794 372.035 311.042C372.035 310.242 372.235 309.554 372.635 308.978C373.051 308.386 373.683 307.938 374.531 307.634C375.379 307.314 376.475 307.154 377.819 307.154H380.891V309.53H378.443C377.707 309.53 377.187 309.65 376.883 309.89C376.595 310.13 376.451 310.45 376.451 310.85C376.451 311.25 376.603 311.57 376.907 311.81C377.211 312.05 377.627 312.17 378.155 312.17C378.651 312.17 379.099 312.05 379.499 311.81C379.915 311.554 380.219 311.17 380.411 310.658L381.035 312.338C380.795 313.234 380.323 313.914 379.619 314.378C378.931 314.826 378.019 315.05 376.883 315.05ZM387.37 314.834V297.026H391.93V314.834H387.37Z" fill="#053947"/>
</svg>
