<svg width="32" height="32" viewBox="0 0 32 32" fill="none" xmlns="http://www.w3.org/2000/svg">
<path fill-rule="evenodd" clip-rule="evenodd" d="M13.0003 24.0005C14.4448 24.0005 15.8752 23.7159 17.2099 23.1631C18.5445 22.6103 19.7571 21.8 20.7786 20.7786C21.8 19.7571 22.6103 18.5445 23.1631 17.2099C23.7159 15.8752 24.0005 14.4448 24.0005 13.0003C24.0005 11.5557 23.7159 10.1253 23.1631 8.79065C22.6103 7.45605 21.8 6.24339 20.7786 5.22193C19.7571 4.20046 18.5445 3.39019 17.2099 2.83738C15.8752 2.28457 14.4448 2.00004 13.0003 2.00004C10.0828 2.00004 7.28487 3.15899 5.22193 5.22193C3.15899 7.28487 2.00004 10.0828 2.00004 13.0003C2.00004 15.9177 3.15899 18.7156 5.22193 20.7786C7.28487 22.8415 10.0828 24.0005 13.0003 24.0005ZM26.0005 13.0003C26.0005 16.4481 24.6308 19.7548 22.1928 22.1928C19.7548 24.6308 16.4481 26.0005 13.0003 26.0005C9.55237 26.0005 6.24571 24.6308 3.80769 22.1928C1.36967 19.7548 0 16.4481 0 13.0003C0 9.55237 1.36967 6.24571 3.80769 3.80769C6.24571 1.36967 9.55237 0 13.0003 0C16.4481 0 19.7548 1.36967 22.1928 3.80769C24.6308 6.24571 26.0005 9.55237 26.0005 13.0003Z" fill="#053947"/>
<path d="M20.6885 23.4845C20.7471 23.5645 20.8125 23.6411 20.8845 23.7145L28.5846 31.4146C28.9597 31.7899 29.4684 32.0008 29.999 32.001C30.5295 32.0012 31.0384 31.7906 31.4137 31.4156C31.789 31.0406 31.9999 30.5318 32.0001 30.0013C32.0003 29.4707 31.7897 28.9618 31.4147 28.5866L23.7145 20.8864C23.6431 20.814 23.5662 20.7471 23.4845 20.6864C22.7009 21.757 21.7579 22.7012 20.6885 23.4865V23.4845Z" fill="#053947"/>
</svg>
