<svg width="72" height="73" viewBox="0 0 72 73" fill="none" xmlns="http://www.w3.org/2000/svg">
<path d="M36 24.4294H12V12.4294C12 5.80244 17.373 0.429443 24 0.429443C30.627 0.429443 36 5.80244 36 12.4294H39C40.656 12.4294 42 13.7734 42 15.4294C42 17.0854 40.656 18.4294 39 18.4294H36V24.4294ZM30 48.4294H18C16.344 48.4294 15 49.7734 15 51.4294C15 53.0854 16.344 54.4294 18 54.4294H30C31.656 54.4294 33 53.0854 33 51.4294C33 49.7734 31.656 48.4294 30 48.4294ZM51 12.4294C49.344 12.4294 48 13.7734 48 15.4294C48 17.0854 49.344 18.4294 51 18.4294C52.656 18.4294 54 17.0854 54 15.4294C54 13.7734 52.656 12.4294 51 12.4294ZM69 12.4294C67.344 12.4294 66 13.7734 66 15.4294C66 17.0854 67.344 18.4294 69 18.4294C70.656 18.4294 72 17.0854 72 15.4294C72 13.7734 70.656 12.4294 69 12.4294ZM69 6.42944C70.656 6.42944 72 5.08544 72 3.42944C72 1.77344 70.656 0.429443 69 0.429443C67.344 0.429443 66 1.77344 66 3.42944C66 5.08544 67.344 6.42944 69 6.42944ZM69 24.4294C67.344 24.4294 66 25.7734 66 27.4294C66 29.0854 67.344 30.4294 69 30.4294C70.656 30.4294 72 29.0854 72 27.4294C72 25.7734 70.656 24.4294 69 24.4294ZM60 6.42944C58.344 6.42944 57 7.77344 57 9.42944C57 11.0854 58.344 12.4294 60 12.4294C61.656 12.4294 63 11.0854 63 9.42944C63 7.77344 61.656 6.42944 60 6.42944ZM60 18.4294C58.344 18.4294 57 19.7734 57 21.4294C57 23.0854 58.344 24.4294 60 24.4294C61.656 24.4294 63 23.0854 63 21.4294C63 19.7734 61.656 18.4294 60 18.4294ZM48 48.4294V57.4294C48 65.7124 41.283 72.4294 33 72.4294H15C6.717 72.4294 0 65.7124 0 57.4294V48.4294C0 41.3794 3.588 34.6114 9.108 30.4294H38.892C44.412 34.6114 48 41.3794 48 48.4294ZM30 42.4294H18C13.029 42.4294 9 46.4584 9 51.4294C9 56.4004 13.029 60.4294 18 60.4294H30C34.971 60.4294 39 56.4004 39 51.4294C39 46.4584 34.971 42.4294 30 42.4294Z" fill="#EBFFFE"/>
</svg>
